<?xml version="1.0" encoding="utf-8"?>
<!-- Generator: Adobe Illustrator 18.1.1, SVG Export Plug-In . SVG Version: 6.00 Build 0)  -->
<svg version="1.1" id="Layer_1" xmlns="http://www.w3.org/2000/svg" xmlns:xlink="http://www.w3.org/1999/xlink" x="0px" y="0px"
	 viewBox="0 0 1024 1024" enable-background="new 0 0 1024 1024" xml:space="preserve">
<g>
	<g>
		<g>
			<path fill="#ffc27c" d="M339.3,326.7L327.7,283c-25.2,6.7-50.3,15.1-74.6,24.8l16.8,41.9C292.5,340.7,315.9,332.9,339.3,326.7z"
				/>
			<path fill="#ffc27c" d="M203.8,381.1l-21.7-39.6c-22.9,12.6-45.3,26.7-66.5,41.9l26.3,36.7C161.7,405.9,182.5,392.8,203.8,381.1z
				"/>
			<path fill="#ffc27c" d="M0,489.5l34.3,29.3c15.8-18.5,32.9-36.2,50.8-52.6L54.6,433C35.4,450.6,17,469.7,0,489.5z"/>
			<path fill="#ffc27c" d="M974.4,471.4l-33.2,30.5c16.5,17.9,32,37,46.2,56.8l36.7-26.3C1008.8,511.1,992.1,490.6,974.4,471.4z"/>
			<path fill="#ffc27c" d="M830.1,407.1c20.2,13.4,39.9,28.3,58.4,44.1l29.3-34.3c-19.9-17-41-32.9-62.8-47.4L830.1,407.1z"/>
			<path fill="#ffc27c" d="M786.9,330c-23.3-11.7-47.6-22-72.3-30.8l-15.2,42.5c23,8.2,45.6,17.8,67.3,28.7L786.9,330z"/>
			<path fill="#ffc27c" d="M378.6,360.5l30.7,0l25.6-38.8l49.2,0.3l-31,106.9v2.5c0,13.5,11,24.5,24.5,24.5h44.5L592.6,325l54.6,1.8
				c28.2,0,51.2-22.2,51.2-49.4c0-13.4-5.4-25.9-15.3-35.3c-9.6-9.1-22.3-14.1-36.4-14.1c0,0,0,0,0,0l-54.4,1.8l-70.1-130l-44.6,0
				c-13.5,0-24.4,11-24.4,24.5v2.5l30.8,106.1l-49.5,0.4l-25.1-38l-30.7,0c-12.6,0-22.8,10.2-22.8,22.8v119.5
				C355.8,350.2,366,360.5,378.6,360.5z M391.3,232.6L391.3,232.6l24.1,36.5l115.6-1l-38.5-132.7h8.3l70.5,130.7l75.9-2.5
				c4.4,0,8.4,1.6,11.4,4.4c2.7,2.6,4.2,5.9,4.2,9.4c0,7.7-7,13.9-15.1,13.9l-76-2.5l-71,131.6h-8.3l38.7-133.6L415.8,286
				l-24.5,37.2L391.3,232.6L391.3,232.6z"/>
			<path fill="#ffc27c" d="M584.7,534.6c-29.5-6.7-59.8-10.2-89.8-10.2c-189,0-350.3,128.9-392.4,313.4c-6.5,28.7-9.8,57.6-10,86.3
				h45.2c0.2-18,1.7-36,4.6-54c25.4,6.5,51.5,17,59.9,23.8c-0.4,2.9-0.8,5.9-1.3,8.8c-1,6.6-2.1,13.9-2.6,21.4h45.3
				c0.5-5.1,1.3-10.5,1.9-14.5c0.8-5.4,1.7-10.9,2.2-16.1c2.8-28.4-29.3-51-95.4-67.4C188.7,702.1,287,609.9,408.9,580
				c-6.7,13-12.1,29.1-14.4,49.4c-1.1,10-2.5,19-3.8,26.9c-5.1,31.9-10.3,65,32.9,84.2c24.2,10.8,41.2,12.6,54.8,14
				c6.6,0.7,12.5,1.3,18.7,2.9c2.2,7.3,1.1,25.3,0.6,32.4c-0.6,9.1-1.1,18.4,1.6,26c2.8,15.5,14.2,64.6,52.2,108.3h67.9
				c-65.3-42.6-75.7-115.5-76.1-118.7l-0.9-7.4c0.1-1.8,0.2-3.7,0.3-5.3c1.5-23.5,4.2-67.3-29.3-77.5c-11.6-3.5-21.5-4.6-30.3-5.5
				c-12.6-1.3-23.4-2.5-41.1-10.4c-11.6-5.2-11.6-5.2-6.7-35.9c1.3-8.4,2.8-18,4.1-29c3.4-31.1,16.5-50.8,28.4-63.7
				c9-0.7,18.1-1.1,27.2-1.1c26.7,0,53.5,3,79.8,9C667.9,599.8,747.2,656,798,736.9c34.5,54.8,53,116.5,54.8,179.6
				c-3.8,2.5-8.4,5.1-13.5,7.7H898c-0.4-74.2-21.3-146.9-61.8-211.3C779,621.8,689.6,558.5,584.7,534.6z"/>
		</g>
	</g>
</g>
</svg>
