<?xml version="1.0" encoding="utf-8"?>
<!-- Svg Vector Icons : http://www.onlinewebfonts.com/icon -->
<!DOCTYPE svg PUBLIC "-//W3C//DTD SVG 1.1//EN" "http://www.w3.org/Graphics/SVG/1.1/DTD/svg11.dtd">
<svg version="1.1" xmlns="http://www.w3.org/2000/svg" xmlns:xlink="http://www.w3.org/1999/xlink" x="0px" y="0px" viewBox="0 0 1000 1000" enable-background="new 0 0 1000 1000" xml:space="preserve">
<metadata> Svg Vector Icons : http://www.onlinewebfonts.com/icon </metadata>
<g><path d="M627.4,878.4c-20.1-55.9-92.1-243.7-122-321.4c-56.3,37.6-119.1,73.2-179.3,98.4c-18.7,65.3-55.8,189.3-73.8,205.8c-30.8,28.4-42.5,24.8-47.2-14.2c-4.7-39-24.8-165.2-24.8-165.2s-110.3-62.2-145-80c-34.6-17.8-34-30.2,2.9-49.7c21.5-11.4,149.4-4.3,216.5,0.3c43.9-48.5,98.6-96.1,152.8-136.7c-62-54.9-211.8-187.6-256.9-225.8c-39.6-33.6,4-40.7,4-40.7c19.9-3.6,62.4-6.7,83.1-0.5C366.6,187.6,566.6,254.2,613.6,270c18-12.7,37.6-26.5,59.3-41.9c240-170,300.5-132.3,311.9-115.9c11.4,16.5,25.7,86.8-214.3,256.8c-21.7,15.4-41.2,29.2-59.2,42c-1.5,50-8,262.9-15.9,398.7c-1.3,21.8-18.7,61.1-28.8,78.8C666.5,888.5,645,927.5,627.4,878.4z"/></g>
</svg>
