<svg xmlns="http://www.w3.org/2000/svg" xmlns:xlink="http://www.w3.org/1999/xlink" width="300" height="300" viewBox="-3892.037924071838 -5001.39807290399 7785.231576158791 10003.935177791951" preserveAspectRatio="xMinYMin meet"><g transform="matrix(1,0,0,-1,0,1.1390319839692893)"><g><polyline fill="none" stroke="#66cc99" stroke-width="66.69290118527967" points="1854.039499849278,-3229.440922069023 1857.722195311662,-3232.7573244394057" opacity="0.8" /><polyline fill="none" stroke="#66cc99" stroke-width="66.69290118527967" points="-895.6322193982238,-2664.9796998570396 -946.885524951289,-2620.026978963782" opacity="0.8" /><polyline fill="none" stroke="#66cc99" stroke-width="66.69290118527967" points="3372.1278120298875,-1366.9053487398392 3357.285516922627,-1354.0178062047657" opacity="0.8" /><path fill-rule="evenodd" fill="#66cc99" stroke="#555555" stroke-width="66.69290118527967" opacity="0.6" d="M -566.4522846406913,-851.8941080784981 L -592.132575429929,-853.4266676002696 L -626.8166474477581,-823.0447385715504 L -628.7721620078005,-811.2049964688242 L -629.2149706468125,-807.9223736982194 L -564.6115627890916,-736.0809247744644 L -558.1404767599183,-735.4696567745656 L -552.3240007322727,-734.9139438062944 L -505.06067112827066,-777.9484470424538 L -492.04470185821083,-789.8003829952866 L -529.948539006277,-833.3600087954562 L -541.6964331073788,-823.4665254449793 L -566.4522846406913,-851.8941080784981 z" /><path fill-rule="evenodd" fill="#66cc99" stroke="#555555" stroke-width="66.69290118527967" opacity="0.6" d="M 3522.6775343909544,-1652.4388822142355 L 3406.61299361604,-1789.3086049099256 L 3443.1235927796556,-1821.3633662977797 L 3380.5701226580645,-1894.1681912614501 L 3403.4322814708153,-1924.2185215758177 L 3369.8882308874345,-1962.3860055635935 L 3337.807011710609,-1935.490796294666 L 3317.470695670229,-1959.0944342239752 L 3326.418021407272,-1967.5451818112958 L 3286.1124419144494,-2013.7171909377726 L 3308.8113885457715,-2034.3432184716094 L 3306.113118632471,-2038.3397355390905 L 3344.897247834394,-2071.984895947192 L 3298.648421119652,-2125.7498563946797 L 3175.889348671214,-2263.3417850411056 L 3240.841875162734,-2269.497496961382 L 3253.493082938682,-2308.546070212382 L 3219.833736000333,-2311.6726566182365 L 3239.0693666305456,-2354.0885436823537 L 3059.2867250689305,-2451.200036314847 L 2848.2392881828505,-2602.891446672277 L 2712.990989003179,-2699.875375519659 L 2600.536159487434,-2824.506123406854 L 2488.7589786717767,-2951.403911764569 L 2458.768130653502,-3084.2900970747187 L 2342.23523675557,-3532.009178735693 L 2339.8559236740457,-3535.782460132176 L 2333.09293542919,-3546.5235007613283 L 1903.8236623009923,-3171.5618596480685 L 1854.039499849278,-3229.440922069023 L 1810.2637759713136,-3280.333034036871 L 1819.2312232319646,-3288.3636498977035 L 1722.7484463484593,-3400.561428154906 L 1769.700869032017,-3439.4236065376253 L 1775.2795493179856,-3433.4907545778656 L 1839.1657748149762,-3489.3152828657867 L 1779.8950611260068,-3556.790669751792 L 1770.4310233307892,-3706.28927153836 L 1704.186857348635,-3703.8534414672654 L 1704.0955564363053,-3716.082367899353 L 1688.9133564107972,-3732.3334301415666 L 1597.8799642096883,-3725.9321453782404 L 1587.8515980368395,-3899.7770465544518 L 1551.4561103327046,-3962.3017214960496 L 1532.133486191829,-4206.751972353498 L 1513.659408151879,-4487.510100851249 L 1483.7943033192464,-4521.401724500228 L 1131.1938912217772,-4503.379844289646 L 1096.0435303534352,-4472.420552714166 L 1126.3845837716724,-3971.763871062103 L 969.4094899731584,-3835.0984293254114 L 1107.5816688514408,-3676.1827788176633 L 1109.908905844974,-3618.3537111386668 L 1121.6205252429747,-3604.909293778602 L 1120.1412987916447,-3339.946437412835 L 962.7416904073559,-3406.4986200728576 L 302.58782005698976,-3873.784862440269 L -884.7823787755133,-4630.881955207992 L -1213.8030662136416,-4356.736073863024 L -1463.312813924137,-4627.628820866712 L -1626.8924873218855,-4476.369081460754 L -1776.777901195736,-4336.692329395342 L -1861.081790181304,-4236.760542718791 L -1095.2690681676252,-3749.5255093963688 L -1283.4006207967557,-3444.8260057996404 L -1342.4280161623317,-3390.876300807838 L -1268.8333371236888,-3307.340867853816 L -1154.1302203157486,-3164.216277067741 L -1096.901211371273,-3080.318327442848 L -1051.798306618185,-3004.1617403437144 L -998.450385782338,-2899.9655931708016 L -950.1935494672366,-2795.2782741341775 L -899.7532427545119,-2676.0808513872043 L -895.6322193982238,-2664.9796998570396 L -803.1054566504448,-2415.718386325368 L -724.7569698341272,-2266.824754186664 L -688.4417353036016,-2212.0167796794144 L -673.6528109533339,-2201.7483039673875 L -660.078644342107,-2195.9416766401955 L -642.9922165072435,-2193.284501984156 L -626.6364132925519,-2196.791710463453 L -603.9717347901792,-2203.448671855563 L -553.5526625574109,-2084.3811277925192 L -539.8875637327328,-2053.626724122329 L -564.9644969253843,-2032.7156802169263 L -579.7497230075521,-2017.7254630234668 L -585.8457294362197,-2004.572248133001 L -590.8157868582604,-1986.9682311089916 L -593.3849176469292,-1968.6746036771767 L -593.7238446794354,-1951.2380470056094 L -592.0105380358008,-1939.7882365907496 L -550.4882383421349,-1760.9657940539944 L -514.8399004424798,-1637.8012459813642 L -456.66402408062856,-1478.3968331412723 L -446.0021215936783,-1450.1121295753794 L -524.7668624049121,-1417.2231172189581 L -623.6554024548793,-1708.2691980621894 L -706.2948259881679,-1994.7421879526416 L -832.0099457748896,-1950.8253127785872 L -846.0599957350654,-1950.3444501879262 L -859.6334096013552,-1954.4480879951686 L -868.6042667579891,-1965.5627141785612 L -902.2206182494132,-2067.9057990289034 L -903.3168920087446,-2095.1007722557515 L -901.7442133539329,-2110.9352376526717 L -898.2345138850133,-2127.1372565081656 L -890.4832638247494,-2148.658898361342 L -864.3140352425746,-2198.4583050009696 L -846.9895925988815,-2240.41129999729 L -841.6656175766739,-2258.661012729311 L -837.9121764196348,-2287.3144951610266 L -837.6710124655449,-2313.1855494873134 L -840.2185604953878,-2332.769194890702 L -868.4727246460159,-2419.7910465917166 L -946.885524951289,-2620.026978963782 L -954.6316531997815,-2639.806639391076 L -1011.3830247993313,-2793.085168269539 L -1066.1963432657622,-2927.0241683715976 L -1115.667790147829,-3016.4767778829614 L -1131.4430982024019,-3029.6479176780767 L -1167.9304577357207,-3073.7480576773205 L -1200.1601889779863,-3112.4522195700906 L -1246.4959127177904,-3167.732309266091 L -1396.406661798075,-3340.788488285887 L -1514.9792989641303,-3228.913041478873 L -1563.9328783038811,-3220.5077960523627 L -1589.484564338927,-3143.5543425910164 L -1592.5653115681382,-3134.74052600277 L -1617.3987866137948,-3138.0150095612075 L -1614.979410967879,-3145.5601128305 L -1620.1468713284644,-3155.0945188424507 L -1631.5787452338382,-3149.059756993908 L -1635.759864275473,-3146.543603377103 L -1646.3900603861944,-3130.1495533439243 L -1687.0385742915873,-3097.6663624838184 L -1779.6258487240743,-3018.006872648149 L -1715.14431629763,-1877.1015236993055 L -1700.0544294661852,-1610.1287651313241 L -1665.242084818814,-994.2871172761444 L -1656.3311290962235,-836.6268030697892 L -1648.7799398672203,-706.2057235931603 L -1663.0607429032834,-693.015027703416 L -1694.0093944432545,-668.7802702977145 L -1709.7685119819416,-652.3953823211538 L -1852.5114020448036,-528.0736506921472 L -1852.8239288222942,-525.0802764768359 L -1827.2392272657892,-501.9338003786534 L -1832.6309651464196,-497.4697342250725 L -1835.9230487988661,-494.17481530858635 L -1863.4928547303703,-519.7796417862744 L -1870.406287110849,-518.4528722345311 L -2116.3778239177163,-300.2129371694475 L -2404.1359614557746,-42.360471944065466 L -2425.693559843764,-27.795339181043275 L -2456.2581660752644,-1.2414721853727002 L -2471.75294667283,-10.88115611122353 L -2866.3729022261123,328.91708953404043 L -2929.02527449242,257.7498738632803 L -2926.6976358266456,239.6553998719282 L -2989.3509519754243,170.23595499348616 L -3009.243416765762,171.99504047021063 L -3063.630424623655,221.0556638307369 L -3085.8645698524606,228.07975553003533 L -3115.1301950859756,219.9195299381451 L -3169.122244773991,159.65472725042946 L -3178.020431420695,30.594186346076558 L -3184.358893293314,-61.380480463854155 L -3209.531153088748,-83.54100006001069 L -3268.049729410663,-84.67097031103539 L -3302.018573059109,-118.4977834840864 L -3398.571159854123,-114.34850026356882 L -3439.631637023524,-79.48029567307269 L -3495.220389272683,-73.59937737948022 L -3515.691258532633,-59.575492450051634 L -3521.52180637584,-32.72101748798469 L -3516.7768337650487,53.078674381865554 L -3453.9683861797853,1168.9426551258264 L -3414.619413926926,1916.4530522620787 L -3395.9236138884617,2206.375537476728 L -3352.1279580945356,2964.7559878236757 L -3343.8264060026536,3129.257989310446 L -3299.4188372161016,3950.4983209187035 L -3277.5375867797798,4319.658402378345 L -3266.992506830522,4351.14203419259 L -3236.5675640072973,4387.864748719536 L -3199.700769374583,4432.75100354098 L -3188.778090350131,4627.941374269232 L -3182.345526722,4632.0209871919615 L -2896.0295452318346,4377.58265801996 L -2822.680150397774,4307.715497437437 L -2749.0530547134263,4231.272970888674 L -2916.383024884564,4031.909962568498 L -2960.5828338223905,3256.3551589723884 L -2966.4384349947877,3240.0236348838507 L -2993.9423287908216,3208.5496758275876 L -2999.22109395447,3188.71270669525 L -3047.6695131988977,2385.8555665697063 L -3045.3469223680386,2361.9302241428863 L -3038.9183643310466,2343.844236709203 L -2946.55465819166,2263.4372615211164 L -2933.7032072458683,2238.9270739035587 L -2956.915475369633,1770.2328896483136 L -2984.7185145805124,1302.7436707116428 L -2859.3150391140803,1191.061780346009 L -2862.2020437081565,1172.781170321694 L -2845.6672417363297,1147.1452532085764 L -2848.8965024404956,1126.3166644123623 L -2897.01424065041,1064.598862479434 L -2898.6120279641436,1025.064230813004 L -3014.602152652505,897.0687661317894 L -3011.738880021692,875.2796186703727 L -3001.21618557413,860.6852199254148 L -2224.849309364137,181.17086790758785 L -2135.641085753112,104.99805458072615 L -1698.1180626730081,-402.4235097957088 L -1638.3087371756626,-405.2144352115391 L -1637.2100367312116,-381.7917254836184 L -1595.6270645062764,329.76691069252365 L -1576.462852109947,630.9451680123333 L -1552.891877295296,928.41683218153 L -1480.8865315845987,1006.2640611180886 L -1406.9080215899937,1031.8131207611516 L -1401.4544218009137,1033.6920951971842 L -1381.6195283023642,1055.7965963490076 L -1373.464317030611,1066.2763074389134 L -1273.1682720661852,1176.6997491296672 L -1118.388490783386,1172.5005990882482 L -1029.896970272034,1095.691308066692 L -1007.9563519305003,1091.4249922291726 L -997.395865826983,1068.1666308590486 L -810.0302378721783,900.0422011903354 L -825.1947118052265,628.2809463300746 L -815.6939447201346,575.0794218717075 L -818.1327623155493,543.9454528431039 L -833.7590227798441,493.64124531382714 L -837.3898244188763,429.20328756394946 L -600.9957766723986,222.07748439784353 L -642.1406512591467,-628.3587408938375 L -760.6136845249065,-757.2967143199454 L -848.4395805362947,-755.5687884639664 L -885.0915898774049,-798.9033579886479 L -908.0634299617006,-831.0572082770586 L -911.6606204687782,-850.6963057804116 L -883.7345096530082,-874.3692424600382 L -881.3230912413511,-888.3456156380653 L -662.793526214986,-876.7405955060649 L -419.7849024019965,-864.5605487323664 L -233.36113587752527,-855.2036599905549 L 23.57641704278263,-841.778417162771 L 329.5195885757721,-821.8940398593278 L 940.9566352026525,-789.0119432416878 L 1022.5324369668638,-732.4799355795996 L 1101.0171410337534,-643.7558520124312 L 1198.6037084050656,-495.49459061420407 L 1263.8895230858013,-412.6018025455181 L 1264.7303024409157,-394.28596776045833 L 1300.7225687229109,-336.6480605051499 L 1305.7688484472478,-313.8801655210121 L 1312.1967844003216,-307.79179897279124 L 1374.2190820457545,-249.06700529756637 L 1438.0003955968054,-218.69341308488086 L 1477.7881457394296,-210.51418223641778 L 1606.5548222819548,-276.4369000932592 L 1776.7667619613342,-419.82125580632595 L 1765.8817163848992,-602.0800163715569 L 1766.1229965017435,-628.4851256737971 L 1753.9480349533242,-637.2244345422102 L 1754.3912224993103,-656.3410591008821 L 1763.6657905817915,-659.6537032426655 L 1774.9477303255408,-651.4265498820201 L 1915.2903771045942,-636.4856973323923 L 2051.4478826275536,-610.7601949900586 L 2173.1608361205854,-566.3433703358044 L 2201.2571256931315,-575.0881434748471 L 2279.044909747366,-637.9001014542531 L 2737.947869266492,-616.2689900444749 L 3068.7894930479238,-905.6301924076354 L 3362.802334706497,-1162.2577070020047 L 3368.7239139451726,-1255.6676813873178 L 3408.2817541312456,-1292.2049611443226 L 3357.285516922627,-1354.0178062047657 L 3314.929957205788,-1405.3556518735732 L 3506.1892535419797,-1588.8579164106468 L 3482.9718257184904,-1614.6007435871397 L 3522.6775343909544,-1652.4388822142355 z" /></g></g></svg>